HIERARCHY
ROOT Hips
{
	OFFSET 0.000000 0.000000 0.000000 
	CHANNELS 6 Xposition Yposition Zposition Zrotation Yrotation Xrotation
	JOINT LeftUpLeg
	{
		OFFSET 1.363060 -1.794630 0.839290 
		CHANNELS 3 Zrotation Yrotation Xrotation
		JOINT LeftLeg
		{
			OFFSET 2.448110 -6.726130 0.000000 
			CHANNELS 3 Zrotation Yrotation Xrotation
			JOINT LeftFoot
			{
				OFFSET 2.562200 -7.039590 0.000000 
				CHANNELS 3 Zrotation Yrotation Xrotation
				JOINT LeftToeBase
				{
					OFFSET 0.157640 -0.433110 2.322550 
					CHANNELS 3 Zrotation Yrotation Xrotation
					End Site
					{
						OFFSET 0.000000 0.000000 0.000000 
					}
				}
			}
		}
	}
	JOINT RightUpLeg
	{
		OFFSET -1.305520 -1.794630 0.839290 
		CHANNELS 3 Zrotation Yrotation Xrotation
		JOINT RightLeg
		{
			OFFSET -2.542530 -6.985550 0.000000 
			CHANNELS 3 Zrotation Yrotation Xrotation
			JOINT RightFoot
			{
				OFFSET -2.568260 -7.056230 0.000000 
				CHANNELS 3 Zrotation Yrotation Xrotation
				JOINT RightToeBase
				{
					OFFSET -0.164730 -0.452590 2.363150 
					CHANNELS 3 Zrotation Yrotation Xrotation
					End Site
					{
						OFFSET 0.000000 0.000000 0.000000 
					}
				}
			}
		}
	}
	JOINT Spine
	{
		OFFSET 0.028270 2.035590 -0.193380 
		CHANNELS 3 Zrotation Yrotation Xrotation
		JOINT Spine1
		{
			OFFSET 0.056720 2.048850 -0.042750 
			CHANNELS 3 Zrotation Yrotation Xrotation
			JOINT Neck1
			{
				OFFSET -0.054170 1.746240 0.172020 
				CHANNELS 3 Zrotation Yrotation Xrotation
				JOINT Head
				{
					OFFSET 0.104070 1.761360 -0.123970 
					CHANNELS 3 Zrotation Yrotation Xrotation
					End Site
					{
						OFFSET 0.000000 0.000000 0.000000 
					}
				}
			}
			JOINT LeftArm
			{
				OFFSET 3.362410 1.200890 -0.311210 
				CHANNELS 3 Zrotation Yrotation Xrotation
				JOINT LeftForeArm
				{
					OFFSET 4.983000 -0.000000 -0.000000 
					CHANNELS 3 Zrotation Yrotation Xrotation
					JOINT LeftHand
					{
						OFFSET 3.483560 -0.000000 -0.000000 
						CHANNELS 3 Zrotation Yrotation Xrotation
						JOINT LeftHandIndex1
						{
							OFFSET 0.715260 -0.000000 -0.000000 
							CHANNELS 3 Zrotation Yrotation Xrotation
							End Site
							{
								OFFSET 0.000000 0.000000 0.000000 
							}
						}
					}
				}
			}
			JOINT RightArm
			{
				OFFSET -3.136600 1.374050 -0.404650 
				CHANNELS 3 Zrotation Yrotation Xrotation
				JOINT RightForeArm
				{
					OFFSET -5.241900 -0.000000 -0.000000 
					CHANNELS 3 Zrotation Yrotation Xrotation
					JOINT RightHand
					{
						OFFSET -3.444170 -0.000000 -0.000000 
						CHANNELS 3 Zrotation Yrotation Xrotation
						JOINT RightHandIndex1
						{
							OFFSET -0.622530 -0.000000 -0.000000 
							CHANNELS 3 Zrotation Yrotation Xrotation
							End Site
							{
								OFFSET 0.000000 0.000000 0.000000 
							}
						}
					}
				}
			}
		}
	}
}
MOTION
Frames: 15
Frame Time: 0.041667
10.316831 17.523103 -0.010100 49.828161 83.935628 41.330281 -26.343164 8.240157 6.765475 -1.364511 6.372678 15.386080 -0.219641 5.082120 -11.373964 0.055500 -1.520700 -4.182700 14.821681 -2.346308 7.962461 -2.552663 -11.499810 28.875928 -0.809709 4.110331 -16.203112 -0.548000 4.742500 -13.175500 0.764738 1.331922 1.250932 0.253061 -0.226569 12.557720 5.388095 -7.290124 18.294003 -1.035800 -1.702600 14.651800 -92.413095 -25.957378 112.100935 108.164626 -58.857516 -74.568117 -0.932314 1.717748 -3.782306 -7.125000 0.000000 0.000000 91.642125 25.571630 67.677369 -156.587835 30.633064 -112.809648 1.488242 0.065220 -12.021297 7.125000 0.000000 0.000000 
10.316728 17.525576 0.002577 55.318132 84.385041 46.809223 -26.397475 7.980574 6.882775 -1.374952 6.341302 15.282397 -0.178761 4.727273 -11.121238 0.045400 -1.375800 -3.783600 14.639811 -2.223378 8.019330 -2.631506 -11.610249 29.306474 -0.820012 4.356893 -16.169511 -0.689600 5.308700 -14.791300 0.762833 1.357431 1.275281 0.340492 -0.209452 12.677773 5.420834 -7.186344 18.210701 -0.983100 -1.684500 14.643600 -92.495330 -25.873675 111.707990 108.061970 -58.877456 -74.498543 -0.962657 1.688953 -3.709490 -7.125000 0.000000 0.000000 91.061062 25.333870 67.479116 -156.529960 30.752554 -112.747419 1.441333 0.080829 -11.965394 7.125000 0.000000 0.000000 
10.316316 17.528977 0.016902 61.711917 84.692209 53.196886 -26.524581 7.676024 7.028946 -1.395568 6.291665 15.114141 -0.151508 4.457271 -10.836252 0.040500 -1.299700 -3.573900 14.408555 -2.047726 8.137625 -2.701240 -11.674156 29.625462 -0.834844 4.827140 -16.092223 -0.671100 5.238800 -14.591000 0.767093 1.474925 1.291875 0.513717 -0.156098 12.745571 5.314182 -7.179060 18.135128 -1.072500 -1.691200 14.645800 -92.617595 -25.692622 111.429878 108.192479 -58.855863 -74.592609 -0.860151 1.689595 -3.751001 -7.125000 0.000000 0.000000 90.311168 24.765271 67.535681 -156.396035 30.960314 -112.642842 1.431132 0.081767 -10.758439 7.125000 0.000000 0.000000 
10.314667 17.533615 0.030609 68.956319 84.943932 60.406042 -26.614553 7.345969 7.182288 -1.416821 6.242455 14.949628 -0.142360 4.298128 -10.496909 0.063600 -1.627000 -4.475900 14.221594 -1.907638 8.368659 -2.742285 -11.686813 29.786319 -0.858404 5.171079 -16.177823 -0.753100 5.542700 -15.463200 0.755801 1.588290 1.247402 0.550668 -0.068616 12.545728 5.206523 -7.177648 18.085001 -1.159100 -1.689200 14.604000 -92.718243 -25.394949 111.171948 108.327788 -58.821139 -74.717274 -0.925187 1.621832 -4.015917 -7.125000 0.000000 0.000000 89.623397 23.957021 67.040599 -156.255227 31.153883 -112.516438 1.356498 0.079012 -11.587819 7.125000 0.000000 0.000000 
10.313430 17.536088 0.046583 75.795805 85.208409 67.182856 -26.488101 7.112211 7.344506 -1.428455 6.184945 14.791761 -0.131934 4.108814 -10.096190 0.113600 -2.173500 -5.985300 14.235507 -1.776242 8.551094 -2.786801 -11.731290 30.003194 -0.878918 5.490674 -16.243413 -0.693700 5.324300 -14.835800 0.721318 1.714879 1.189810 0.381755 0.064426 12.302463 5.210646 -7.142469 18.043607 -1.138900 -1.672300 14.503200 -92.798735 -24.978708 110.991856 108.179640 -58.856858 -74.580109 -0.778281 1.617572 -4.055021 -7.125000 0.000000 0.000000 88.944828 22.952800 66.854717 -156.074240 31.367692 -112.375273 1.315482 0.080373 -11.324968 7.125000 0.000000 0.000000 
10.317037 17.539180 0.062970 84.382144 85.195909 75.690816 -26.565147 6.908498 7.526573 -1.439126 6.146036 14.658987 -0.096013 3.769214 -9.770691 0.121400 -2.245900 -6.185700 13.944304 -1.803665 8.826217 -2.828109 -11.735711 30.149474 -0.887351 6.003317 -16.096197 -0.461900 4.359500 -12.090400 0.705255 1.754434 1.240452 0.488945 0.080621 12.510858 5.258848 -7.049398 17.952701 -1.114800 -1.637900 14.529300 -92.895124 -24.901046 110.607697 108.070958 -58.883048 -74.494991 -0.755875 1.578214 -4.005183 -7.125000 0.000000 0.000000 88.123581 22.582469 66.735273 -155.730341 31.826784 -112.123381 1.283936 0.070478 -10.933575 7.125000 0.000000 0.000000 
10.323839 17.542993 0.078429 93.278278 85.026096 84.501717 -26.704514 6.653200 7.753717 -1.454535 6.096579 14.500952 -0.061787 3.458040 -9.507605 0.103700 -2.076800 -5.718000 13.633764 -1.814136 9.257345 -2.832952 -11.677151 30.095307 -0.899049 6.336962 -16.062841 -0.416400 4.141900 -11.476200 0.688541 1.773487 1.261632 0.603257 0.089404 12.580447 5.353114 -7.012855 17.808938 -1.035600 -1.643700 14.438700 -92.950559 -24.586552 110.281138 108.086563 -58.893379 -74.503335 -0.634861 1.553612 -3.836585 -7.125000 0.000000 0.000000 87.235456 21.986152 66.484206 -155.244766 32.417636 -111.788202 1.264569 0.053994 -10.393987 7.125000 0.000000 0.000000 
10.325488 17.544745 0.094403 100.921673 84.987216 92.142975 -26.571788 6.333789 7.882081 -1.463359 6.054693 14.393646 -0.028884 3.163865 -9.317539 0.072700 -1.739200 -4.785400 13.769218 -1.584049 9.492244 -2.839133 -11.669824 30.116613 -0.912397 6.341895 -16.181509 -0.480700 4.446200 -12.335400 0.688739 1.829931 1.236641 0.645448 0.137715 12.486877 5.366065 -6.994362 17.734723 -1.006700 -1.650100 14.389900 -93.094818 -24.270564 109.956972 107.926841 -58.925069 -74.365839 -0.601665 1.501920 -3.858611 -7.125000 0.000000 0.000000 86.393668 21.202951 65.304799 -154.596952 33.182042 -111.290837 1.165806 -0.024428 -12.430541 7.125000 0.000000 0.000000 
10.323530 17.547940 0.109141 107.985078 84.637267 99.259953 -26.722260 5.990810 7.909104 -1.471101 6.050808 14.362938 0.016277 2.800572 -9.200026 0.033000 -1.172400 -3.223300 13.544370 -1.406113 9.605237 -2.871046 -11.685187 30.252828 -0.922483 6.430486 -16.244454 -0.456500 4.334500 -12.019800 0.674907 1.891239 1.213247 0.760044 0.163214 12.418922 5.360619 -6.908508 17.624945 -0.989700 -1.637400 14.337900 -93.369140 -24.134509 109.522322 107.690103 -58.965433 -74.155713 -0.534844 1.448109 -4.568018 -7.125000 0.000000 0.000000 85.509148 20.354041 64.814847 -154.106409 33.742628 -110.934701 1.108693 -0.025450 -12.667276 7.125000 0.000000 0.000000 
10.327446 17.552784 0.122642 114.334994 84.072166 105.603622 -27.057438 5.664781 8.079669 -1.489277 6.010173 14.230691 0.040297 2.554040 -8.945841 0.026100 -1.042100 -2.864500 13.017749 -1.510939 9.973302 -2.851362 -11.595542 30.077519 -0.929524 6.577304 -16.250187 -0.389200 4.005900 -11.093200 0.646324 1.921753 1.222457 0.923726 0.160427 12.382992 5.585140 -6.944498 17.295465 -0.783300 -1.716300 14.032800 -93.592445 -23.981173 109.112686 107.421815 -59.016016 -73.943340 -0.541718 1.444830 -4.841845 -7.125000 0.000000 0.000000 84.525392 19.570679 64.528757 -153.625405 34.285861 -110.598278 1.072908 -0.003871 -12.047082 7.125000 0.000000 0.000000 
10.334351 17.556082 0.141708 120.375529 83.715983 111.608011 -26.979502 5.420942 8.267053 -1.498541 5.942028 14.072041 0.060462 2.310257 -8.631933 0.037300 -1.247000 -3.428600 12.930022 -1.620239 10.443153 -2.777914 -11.451931 29.643728 -0.927649 6.516105 -16.235442 -0.299000 3.516100 -9.719000 0.638438 1.982472 1.208370 0.953286 0.189493 12.426167 5.482642 -6.955059 17.395042 -0.874100 -1.696000 14.221800 -93.685570 -23.641695 108.827672 107.000485 -59.085385 -73.590520 -0.516727 1.450778 -3.810797 -7.125000 0.000000 0.000000 83.669920 18.638628 64.222325 -153.095945 34.838607 -110.240731 1.051235 0.010032 -11.115561 7.125000 0.000000 0.000000 
10.336619 17.559586 0.164896 125.258795 83.387324 116.526129 -26.789923 5.221826 8.317428 -1.500223 5.893925 13.973918 0.093568 1.990982 -8.422991 0.043200 -1.341400 -3.688600 12.973356 -1.533591 10.725853 -2.733675 -11.373822 29.398188 -0.942366 6.370673 -16.440949 -0.255800 3.253800 -8.986200 0.627300 2.100088 1.175135 0.993077 0.252316 12.350983 5.489183 -6.953689 17.319792 -0.870100 -1.701200 14.214600 -93.726079 -23.156650 108.423496 106.591971 -59.150234 -73.248333 -0.492911 1.455646 -2.855380 -7.125000 0.000000 0.000000 82.982077 17.439543 64.204657 -152.562775 35.346741 -109.901791 1.077860 0.011288 -9.240775 7.125000 0.000000 0.000000 
10.338680 17.564017 0.186333 129.395571 83.033005 120.692840 -26.657253 5.006199 8.441226 -1.511876 5.813477 13.787028 0.112396 1.775855 -8.193054 0.050400 -1.448300 -3.983300 12.989264 -1.483034 11.002694 -2.688688 -11.299577 29.161310 -0.964861 6.162970 -16.752319 -0.240200 3.153700 -8.707100 0.606029 2.237404 1.138532 1.005044 0.332948 12.208440 5.620109 -6.964876 17.138289 -0.757500 -1.731100 14.106200 -93.763301 -22.671955 107.719785 106.493785 -59.164752 -73.185749 -0.503212 1.451445 -3.244798 -7.125000 0.000000 0.000000 82.333211 16.239378 63.583813 -152.068915 35.808454 -109.576375 1.066096 0.005744 -8.822530 7.125000 0.000000 0.000000 
10.343318 17.567315 0.207357 133.673075 82.714523 124.958695 -26.409451 4.848596 8.612225 -1.521415 5.710964 13.559291 0.124596 1.579349 -7.852870 0.072200 -1.733400 -4.769300 13.140768 -1.533935 11.311186 -2.621504 -11.211459 28.841656 -0.987947 5.737389 -17.159372 -0.217800 3.004100 -8.290300 0.584980 2.408784 1.089743 0.935249 0.452215 11.973913 5.750600 -7.097078 16.957262 -0.634200 -1.816800 13.978700 -93.928126 -22.186500 106.961558 106.591915 -59.146838 -73.300073 -0.547025 1.437727 -4.936556 -7.125000 0.000000 0.000000 81.725206 14.846796 62.623421 -151.584682 36.235490 -109.261062 1.055056 -0.016224 -8.413343 7.125000 0.000000 0.000000 
10.350017 17.566800 0.239924 139.734074 82.754339 130.967600 -25.423969 4.736358 8.723201 -1.501109 5.637704 13.488868 0.142649 1.321096 -7.477585 0.102800 -2.067000 -5.691000 14.199439 -1.340148 11.577633 -2.539192 -11.194027 28.593518 -1.016576 4.720550 -17.924854 -0.268200 3.331400 -9.202700 0.638099 2.652608 1.049486 0.925362 0.607842 11.753930 5.732326 -7.283211 16.841920 -0.627200 -1.921300 13.909300 -93.951740 -22.230532 106.956786 106.576119 -59.150939 -73.297261 -0.549136 1.436692 -4.933741 -7.125000 0.000000 0.000000 81.122094 13.200545 61.705888 -151.162585 36.593098 -108.994682 1.060400 -0.051325 -7.905168 7.125000 0.000000 0.000000 
